%TF.GenerationSoftware,KiCad,Pcbnew,10.0.2*%
%TF.CreationDate,2026-06-06T18:42:09+09:00*%
%TF.ProjectId,microphone_converter,6d696372-6f70-4686-9f6e-655f636f6e76,rev?*%
%TF.SameCoordinates,Original*%
%TF.FileFunction,Legend,Bot*%
%TF.FilePolarity,Positive*%
%FSLAX46Y46*%
G04 Gerber Fmt 4.6, Leading zero omitted, Abs format (unit mm)*
G04 Created by KiCad (PCBNEW 10.0.2) date 2026-06-06 18:42:09*
%MOMM*%
%LPD*%
G01*
G04 APERTURE LIST*
%ADD10C,0.300000*%
%ADD11C,0.150000*%
%ADD12C,0.120000*%
G04 APERTURE END LIST*
D10*
X89338346Y-75493055D02*
X89409774Y-75564484D01*
X89409774Y-75564484D02*
X89624060Y-75635912D01*
X89624060Y-75635912D02*
X89766917Y-75635912D01*
X89766917Y-75635912D02*
X89981203Y-75564484D01*
X89981203Y-75564484D02*
X90124060Y-75421626D01*
X90124060Y-75421626D02*
X90195489Y-75278769D01*
X90195489Y-75278769D02*
X90266917Y-74993055D01*
X90266917Y-74993055D02*
X90266917Y-74778769D01*
X90266917Y-74778769D02*
X90195489Y-74493055D01*
X90195489Y-74493055D02*
X90124060Y-74350198D01*
X90124060Y-74350198D02*
X89981203Y-74207341D01*
X89981203Y-74207341D02*
X89766917Y-74135912D01*
X89766917Y-74135912D02*
X89624060Y-74135912D01*
X89624060Y-74135912D02*
X89409774Y-74207341D01*
X89409774Y-74207341D02*
X89338346Y-74278769D01*
X87838346Y-75635912D02*
X88338346Y-74921626D01*
X88695489Y-75635912D02*
X88695489Y-74135912D01*
X88695489Y-74135912D02*
X88124060Y-74135912D01*
X88124060Y-74135912D02*
X87981203Y-74207341D01*
X87981203Y-74207341D02*
X87909774Y-74278769D01*
X87909774Y-74278769D02*
X87838346Y-74421626D01*
X87838346Y-74421626D02*
X87838346Y-74635912D01*
X87838346Y-74635912D02*
X87909774Y-74778769D01*
X87909774Y-74778769D02*
X87981203Y-74850198D01*
X87981203Y-74850198D02*
X88124060Y-74921626D01*
X88124060Y-74921626D02*
X88695489Y-74921626D01*
X87266917Y-74278769D02*
X87195489Y-74207341D01*
X87195489Y-74207341D02*
X87052632Y-74135912D01*
X87052632Y-74135912D02*
X86695489Y-74135912D01*
X86695489Y-74135912D02*
X86552632Y-74207341D01*
X86552632Y-74207341D02*
X86481203Y-74278769D01*
X86481203Y-74278769D02*
X86409774Y-74421626D01*
X86409774Y-74421626D02*
X86409774Y-74564484D01*
X86409774Y-74564484D02*
X86481203Y-74778769D01*
X86481203Y-74778769D02*
X87338346Y-75635912D01*
X87338346Y-75635912D02*
X86409774Y-75635912D01*
X85481203Y-74135912D02*
X85338346Y-74135912D01*
X85338346Y-74135912D02*
X85195489Y-74207341D01*
X85195489Y-74207341D02*
X85124061Y-74278769D01*
X85124061Y-74278769D02*
X85052632Y-74421626D01*
X85052632Y-74421626D02*
X84981203Y-74707341D01*
X84981203Y-74707341D02*
X84981203Y-75064484D01*
X84981203Y-75064484D02*
X85052632Y-75350198D01*
X85052632Y-75350198D02*
X85124061Y-75493055D01*
X85124061Y-75493055D02*
X85195489Y-75564484D01*
X85195489Y-75564484D02*
X85338346Y-75635912D01*
X85338346Y-75635912D02*
X85481203Y-75635912D01*
X85481203Y-75635912D02*
X85624061Y-75564484D01*
X85624061Y-75564484D02*
X85695489Y-75493055D01*
X85695489Y-75493055D02*
X85766918Y-75350198D01*
X85766918Y-75350198D02*
X85838346Y-75064484D01*
X85838346Y-75064484D02*
X85838346Y-74707341D01*
X85838346Y-74707341D02*
X85766918Y-74421626D01*
X85766918Y-74421626D02*
X85695489Y-74278769D01*
X85695489Y-74278769D02*
X85624061Y-74207341D01*
X85624061Y-74207341D02*
X85481203Y-74135912D01*
X84481204Y-74135912D02*
X83552632Y-74135912D01*
X83552632Y-74135912D02*
X84052632Y-74707341D01*
X84052632Y-74707341D02*
X83838347Y-74707341D01*
X83838347Y-74707341D02*
X83695490Y-74778769D01*
X83695490Y-74778769D02*
X83624061Y-74850198D01*
X83624061Y-74850198D02*
X83552632Y-74993055D01*
X83552632Y-74993055D02*
X83552632Y-75350198D01*
X83552632Y-75350198D02*
X83624061Y-75493055D01*
X83624061Y-75493055D02*
X83695490Y-75564484D01*
X83695490Y-75564484D02*
X83838347Y-75635912D01*
X83838347Y-75635912D02*
X84266918Y-75635912D01*
X84266918Y-75635912D02*
X84409775Y-75564484D01*
X84409775Y-75564484D02*
X84481204Y-75493055D01*
X82981204Y-74278769D02*
X82909776Y-74207341D01*
X82909776Y-74207341D02*
X82766919Y-74135912D01*
X82766919Y-74135912D02*
X82409776Y-74135912D01*
X82409776Y-74135912D02*
X82266919Y-74207341D01*
X82266919Y-74207341D02*
X82195490Y-74278769D01*
X82195490Y-74278769D02*
X82124061Y-74421626D01*
X82124061Y-74421626D02*
X82124061Y-74564484D01*
X82124061Y-74564484D02*
X82195490Y-74778769D01*
X82195490Y-74778769D02*
X83052633Y-75635912D01*
X83052633Y-75635912D02*
X82124061Y-75635912D01*
X90338346Y-76550828D02*
X89409774Y-76550828D01*
X89409774Y-76550828D02*
X89909774Y-77122257D01*
X89909774Y-77122257D02*
X89695489Y-77122257D01*
X89695489Y-77122257D02*
X89552632Y-77193685D01*
X89552632Y-77193685D02*
X89481203Y-77265114D01*
X89481203Y-77265114D02*
X89409774Y-77407971D01*
X89409774Y-77407971D02*
X89409774Y-77765114D01*
X89409774Y-77765114D02*
X89481203Y-77907971D01*
X89481203Y-77907971D02*
X89552632Y-77979400D01*
X89552632Y-77979400D02*
X89695489Y-78050828D01*
X89695489Y-78050828D02*
X90124060Y-78050828D01*
X90124060Y-78050828D02*
X90266917Y-77979400D01*
X90266917Y-77979400D02*
X90338346Y-77907971D01*
X88981203Y-76550828D02*
X88481203Y-78050828D01*
X88481203Y-78050828D02*
X87981203Y-76550828D01*
D11*
X90035714Y-79431009D02*
X89892857Y-79478628D01*
X89892857Y-79478628D02*
X89845238Y-79526247D01*
X89845238Y-79526247D02*
X89797619Y-79621485D01*
X89797619Y-79621485D02*
X89797619Y-79764342D01*
X89797619Y-79764342D02*
X89845238Y-79859580D01*
X89845238Y-79859580D02*
X89892857Y-79907200D01*
X89892857Y-79907200D02*
X89988095Y-79954819D01*
X89988095Y-79954819D02*
X90369047Y-79954819D01*
X90369047Y-79954819D02*
X90369047Y-78954819D01*
X90369047Y-78954819D02*
X90035714Y-78954819D01*
X90035714Y-78954819D02*
X89940476Y-79002438D01*
X89940476Y-79002438D02*
X89892857Y-79050057D01*
X89892857Y-79050057D02*
X89845238Y-79145295D01*
X89845238Y-79145295D02*
X89845238Y-79240533D01*
X89845238Y-79240533D02*
X89892857Y-79335771D01*
X89892857Y-79335771D02*
X89940476Y-79383390D01*
X89940476Y-79383390D02*
X90035714Y-79431009D01*
X90035714Y-79431009D02*
X90369047Y-79431009D01*
X89511904Y-78954819D02*
X88940476Y-78954819D01*
X89226190Y-79954819D02*
X89226190Y-78954819D01*
X88083333Y-79954819D02*
X88654761Y-79954819D01*
X88369047Y-79954819D02*
X88369047Y-78954819D01*
X88369047Y-78954819D02*
X88464285Y-79097676D01*
X88464285Y-79097676D02*
X88559523Y-79192914D01*
X88559523Y-79192914D02*
X88654761Y-79240533D01*
%TO.C,BT1*%
D12*
X86250000Y-80700000D02*
X91320000Y-80700000D01*
X86250000Y-86300000D02*
X86250000Y-80700000D01*
X91320000Y-80700000D02*
X91320000Y-77150000D01*
X91320000Y-86300000D02*
X86250000Y-86300000D01*
X91320000Y-86300000D02*
X91320000Y-87750000D01*
X91320000Y-87750000D02*
X98200000Y-94130000D01*
X98200000Y-94130000D02*
X105800000Y-94130000D01*
X112680000Y-80700000D02*
X112680000Y-77220000D01*
X112680000Y-86300000D02*
X112680000Y-87750000D01*
X112680000Y-87750000D02*
X105800000Y-94130000D01*
X117750000Y-80700000D02*
X112680000Y-80700000D01*
X117750000Y-86300000D02*
X112680000Y-86300000D01*
X117750000Y-86300000D02*
X117750000Y-80700000D01*
X91320000Y-77200000D02*
G75*
G02*
X96683548Y-75007247I3130000J0D01*
G01*
X107169999Y-75169999D02*
G75*
G02*
X96693578Y-75032608I-5169999J5270000D01*
G01*
X107180001Y-75160001D02*
G75*
G02*
X112677059Y-77200000I2369999J-2040000D01*
G01*
%TD*%
M02*
