%TF.GenerationSoftware,KiCad,Pcbnew,10.0.2*%
%TF.CreationDate,2026-06-06T18:42:09+09:00*%
%TF.ProjectId,microphone_converter,6d696372-6f70-4686-9f6e-655f636f6e76,rev?*%
%TF.SameCoordinates,Original*%
%TF.FileFunction,Copper,L1,Top*%
%TF.FilePolarity,Positive*%
%FSLAX46Y46*%
G04 Gerber Fmt 4.6, Leading zero omitted, Abs format (unit mm)*
G04 Created by KiCad (PCBNEW 10.0.2) date 2026-06-06 18:42:09*
%MOMM*%
%LPD*%
G01*
G04 APERTURE LIST*
G04 Aperture macros list*
%AMRoundRect*
0 Rectangle with rounded corners*
0 $1 Rounding radius*
0 $2 $3 $4 $5 $6 $7 $8 $9 X,Y pos of 4 corners*
0 Add a 4 corners polygon primitive as box body*
4,1,4,$2,$3,$4,$5,$6,$7,$8,$9,$2,$3,0*
0 Add four circle primitives for the rounded corners*
1,1,$1+$1,$2,$3*
1,1,$1+$1,$4,$5*
1,1,$1+$1,$6,$7*
1,1,$1+$1,$8,$9*
0 Add four rect primitives between the rounded corners*
20,1,$1+$1,$2,$3,$4,$5,0*
20,1,$1+$1,$4,$5,$6,$7,0*
20,1,$1+$1,$6,$7,$8,$9,0*
20,1,$1+$1,$8,$9,$2,$3,0*%
G04 Aperture macros list end*
%TA.AperFunction,ComponentPad*%
%ADD10O,3.500000X2.200000*%
%TD*%
%TA.AperFunction,ComponentPad*%
%ADD11R,2.500000X1.500000*%
%TD*%
%TA.AperFunction,ComponentPad*%
%ADD12O,2.500000X1.500000*%
%TD*%
%TA.AperFunction,ComponentPad*%
%ADD13O,3.000000X1.500000*%
%TD*%
%TA.AperFunction,ComponentPad*%
%ADD14O,2.500000X3.500000*%
%TD*%
%TA.AperFunction,ComponentPad*%
%ADD15O,3.500000X2.500000*%
%TD*%
%TA.AperFunction,ComponentPad*%
%ADD16C,1.600000*%
%TD*%
%TA.AperFunction,ComponentPad*%
%ADD17RoundRect,0.250000X-0.550000X-0.550000X0.550000X-0.550000X0.550000X0.550000X-0.550000X0.550000X0*%
%TD*%
%TA.AperFunction,Conductor*%
%ADD18C,0.500000*%
%TD*%
G04 APERTURE END LIST*
D10*
%TO.P,SW1,*%
%TO.N,*%
X80750000Y-77900000D03*
X80750000Y-86100000D03*
D11*
%TO.P,SW1,1,A_1*%
%TO.N,Net-(BT1-+)*%
X80750000Y-80000000D03*
D12*
%TO.P,SW1,2,B_2*%
%TO.N,Net-(SW1-B)*%
X80750000Y-82000000D03*
%TO.P,SW1,3*%
%TO.N,N/C*%
X80750000Y-84000000D03*
%TD*%
D13*
%TO.P,J2,R*%
%TO.N,Net-(C1-Pad2)*%
X115950000Y-100500000D03*
D14*
%TO.P,J2,S*%
%TO.N,Net-(BT1--)*%
X124250000Y-95500000D03*
D15*
%TO.P,J2,T*%
%TO.N,Net-(C2-Pad2)*%
X120750000Y-91000000D03*
%TD*%
D16*
%TO.P,R2,1*%
%TO.N,Net-(SW1-B)*%
X103000000Y-96250000D03*
%TO.P,R2,2*%
%TO.N,Net-(C2-Pad1)*%
X95380000Y-96250000D03*
%TD*%
%TO.P,R1,1*%
%TO.N,Net-(SW1-B)*%
X103000000Y-102500000D03*
%TO.P,R1,2*%
%TO.N,Net-(C1-Pad1)*%
X95380000Y-102500000D03*
%TD*%
D13*
%TO.P,J1,R*%
%TO.N,Net-(C1-Pad1)*%
X89050000Y-90500000D03*
D14*
%TO.P,J1,S*%
%TO.N,Net-(BT1--)*%
X80750000Y-95500000D03*
D15*
%TO.P,J1,T*%
%TO.N,Net-(C2-Pad1)*%
X84250000Y-100000000D03*
%TD*%
D17*
%TO.P,C2,1*%
%TO.N,Net-(C2-Pad1)*%
X107000000Y-96250000D03*
D16*
%TO.P,C2,2*%
%TO.N,Net-(C2-Pad2)*%
X109000000Y-96250000D03*
%TD*%
D17*
%TO.P,C1,1*%
%TO.N,Net-(C1-Pad1)*%
X107000000Y-102500000D03*
D16*
%TO.P,C1,2*%
%TO.N,Net-(C1-Pad2)*%
X109000000Y-102500000D03*
%TD*%
%TO.N,Net-(SW1-B)*%
D18*
X80750000Y-82000000D02*
X82997056Y-82000000D01*
X82997056Y-82000000D02*
X94130000Y-93132944D01*
X94130000Y-96767767D02*
X96862233Y-99500000D01*
X103000000Y-99500000D02*
X103000000Y-102500000D01*
X103000000Y-96250000D02*
X103000000Y-99500000D01*
X96862233Y-99500000D02*
X103000000Y-99500000D01*
X94130000Y-93132944D02*
X94130000Y-96767767D01*
%TO.N,Net-(C1-Pad2)*%
X109000000Y-102500000D02*
X113950000Y-102500000D01*
X113950000Y-102500000D02*
X115950000Y-100500000D01*
%TO.N,Net-(C2-Pad2)*%
X115500000Y-96250000D02*
X120750000Y-91000000D01*
X109000000Y-96250000D02*
X115500000Y-96250000D01*
%TO.N,Net-(C2-Pad1)*%
X105750000Y-95000000D02*
X107000000Y-96250000D01*
X96630000Y-95000000D02*
X105750000Y-95000000D01*
X95380000Y-96250000D02*
X96630000Y-95000000D01*
%TO.N,Net-(C1-Pad1)*%
X96630000Y-103750000D02*
X105750000Y-103750000D01*
X89050000Y-96170000D02*
X89050000Y-90500000D01*
X105750000Y-103750000D02*
X107000000Y-102500000D01*
X95380000Y-102500000D02*
X96630000Y-103750000D01*
X95380000Y-102500000D02*
X89050000Y-96170000D01*
%TD*%
%TA.AperFunction,Conductor*%
%TO.N,Net-(BT1--)*%
G36*
X123753736Y-73250726D02*
G01*
X124043796Y-73268271D01*
X124058659Y-73270076D01*
X124340797Y-73321780D01*
X124355334Y-73325363D01*
X124629182Y-73410698D01*
X124643163Y-73416000D01*
X124904734Y-73533724D01*
X124917987Y-73540680D01*
X125163458Y-73689071D01*
X125175776Y-73697573D01*
X125401573Y-73874474D01*
X125412781Y-73884404D01*
X125615595Y-74087218D01*
X125625525Y-74098426D01*
X125802422Y-74324217D01*
X125810928Y-74336541D01*
X125959319Y-74582012D01*
X125966277Y-74595269D01*
X126083994Y-74856823D01*
X126089304Y-74870825D01*
X126174635Y-75144664D01*
X126178219Y-75159202D01*
X126229923Y-75441340D01*
X126231728Y-75456205D01*
X126249274Y-75746263D01*
X126249500Y-75753750D01*
X126249500Y-104996249D01*
X126249274Y-105003736D01*
X126231728Y-105293794D01*
X126229923Y-105308659D01*
X126178219Y-105590797D01*
X126174635Y-105605335D01*
X126089304Y-105879174D01*
X126083994Y-105893176D01*
X125966277Y-106154730D01*
X125959319Y-106167987D01*
X125810928Y-106413458D01*
X125802422Y-106425782D01*
X125625525Y-106651573D01*
X125615595Y-106662781D01*
X125412781Y-106865595D01*
X125401573Y-106875525D01*
X125175782Y-107052422D01*
X125163458Y-107060928D01*
X124917987Y-107209319D01*
X124904730Y-107216277D01*
X124643176Y-107333994D01*
X124629174Y-107339304D01*
X124355335Y-107424635D01*
X124340797Y-107428219D01*
X124058659Y-107479923D01*
X124043794Y-107481728D01*
X123753736Y-107499274D01*
X123746249Y-107499500D01*
X81253751Y-107499500D01*
X81246264Y-107499274D01*
X80956205Y-107481728D01*
X80941340Y-107479923D01*
X80659202Y-107428219D01*
X80644664Y-107424635D01*
X80370825Y-107339304D01*
X80356827Y-107333995D01*
X80204096Y-107265256D01*
X80095269Y-107216277D01*
X80082012Y-107209319D01*
X79836541Y-107060928D01*
X79824217Y-107052422D01*
X79598426Y-106875525D01*
X79587218Y-106865595D01*
X79384404Y-106662781D01*
X79374474Y-106651573D01*
X79197573Y-106425776D01*
X79189071Y-106413458D01*
X79040680Y-106167987D01*
X79033722Y-106154730D01*
X78916000Y-105893163D01*
X78910698Y-105879182D01*
X78825363Y-105605334D01*
X78821780Y-105590797D01*
X78770076Y-105308659D01*
X78768271Y-105293794D01*
X78750726Y-105003736D01*
X78750500Y-104996249D01*
X78750500Y-104143713D01*
X80649500Y-104143713D01*
X80649500Y-104356286D01*
X80682753Y-104566239D01*
X80748444Y-104768414D01*
X80844951Y-104957820D01*
X80969890Y-105129786D01*
X81120213Y-105280109D01*
X81292179Y-105405048D01*
X81292181Y-105405049D01*
X81292184Y-105405051D01*
X81481588Y-105501557D01*
X81683757Y-105567246D01*
X81893713Y-105600500D01*
X81893714Y-105600500D01*
X82106286Y-105600500D01*
X82106287Y-105600500D01*
X82316243Y-105567246D01*
X82518412Y-105501557D01*
X82707816Y-105405051D01*
X82729789Y-105389086D01*
X82879786Y-105280109D01*
X82879788Y-105280106D01*
X82879792Y-105280104D01*
X83030104Y-105129792D01*
X83030106Y-105129788D01*
X83030109Y-105129786D01*
X83155048Y-104957820D01*
X83155047Y-104957820D01*
X83155051Y-104957816D01*
X83251557Y-104768412D01*
X83317246Y-104566243D01*
X83350500Y-104356287D01*
X83350500Y-104143713D01*
X83317246Y-103933757D01*
X83251557Y-103731588D01*
X83155051Y-103542184D01*
X83155049Y-103542181D01*
X83155048Y-103542179D01*
X83030109Y-103370213D01*
X82879786Y-103219890D01*
X82707820Y-103094951D01*
X82518414Y-102998444D01*
X82518413Y-102998443D01*
X82518412Y-102998443D01*
X82316243Y-102932754D01*
X82316241Y-102932753D01*
X82316240Y-102932753D01*
X82153791Y-102907024D01*
X82106287Y-102899500D01*
X81893713Y-102899500D01*
X81846209Y-102907024D01*
X81683760Y-102932753D01*
X81481585Y-102998444D01*
X81292179Y-103094951D01*
X81120213Y-103219890D01*
X80969890Y-103370213D01*
X80844951Y-103542179D01*
X80748444Y-103731585D01*
X80682753Y-103933760D01*
X80649500Y-104143713D01*
X78750500Y-104143713D01*
X78750500Y-99885258D01*
X81999500Y-99885258D01*
X81999500Y-100114741D01*
X82013577Y-100221658D01*
X82029452Y-100342238D01*
X82088842Y-100563887D01*
X82176650Y-100775876D01*
X82176657Y-100775890D01*
X82291392Y-100974617D01*
X82431081Y-101156661D01*
X82431089Y-101156670D01*
X82593330Y-101318911D01*
X82593338Y-101318918D01*
X82775382Y-101458607D01*
X82775385Y-101458608D01*
X82775388Y-101458611D01*
X82974112Y-101573344D01*
X82974117Y-101573346D01*
X82974123Y-101573349D01*
X83065480Y-101611190D01*
X83186113Y-101661158D01*
X83407762Y-101720548D01*
X83635266Y-101750500D01*
X83635273Y-101750500D01*
X84864727Y-101750500D01*
X84864734Y-101750500D01*
X85092238Y-101720548D01*
X85313887Y-101661158D01*
X85525888Y-101573344D01*
X85724612Y-101458611D01*
X85906661Y-101318919D01*
X85906665Y-101318914D01*
X85906670Y-101318911D01*
X86068911Y-101156670D01*
X86068914Y-101156665D01*
X86068919Y-101156661D01*
X86208611Y-100974612D01*
X86323344Y-100775888D01*
X86411158Y-100563887D01*
X86470548Y-100342238D01*
X86500500Y-100114734D01*
X86500500Y-99885266D01*
X86470548Y-99657762D01*
X86411158Y-99436113D01*
X86323344Y-99224112D01*
X86208611Y-99025388D01*
X86208608Y-99025385D01*
X86208607Y-99025382D01*
X86068918Y-98843338D01*
X86068911Y-98843330D01*
X85906670Y-98681089D01*
X85906661Y-98681081D01*
X85724617Y-98541392D01*
X85525890Y-98426657D01*
X85525876Y-98426650D01*
X85313887Y-98338842D01*
X85092238Y-98279452D01*
X85054215Y-98274446D01*
X84864741Y-98249500D01*
X84864734Y-98249500D01*
X83635266Y-98249500D01*
X83635258Y-98249500D01*
X83418715Y-98278009D01*
X83407762Y-98279452D01*
X83314076Y-98304554D01*
X83186112Y-98338842D01*
X82974123Y-98426650D01*
X82974109Y-98426657D01*
X82775382Y-98541392D01*
X82593338Y-98681081D01*
X82431081Y-98843338D01*
X82291392Y-99025382D01*
X82176657Y-99224109D01*
X82176650Y-99224123D01*
X82088842Y-99436112D01*
X82029453Y-99657759D01*
X82029451Y-99657770D01*
X81999500Y-99885258D01*
X78750500Y-99885258D01*
X78750500Y-94885305D01*
X79000000Y-94885305D01*
X79000000Y-95250000D01*
X80250000Y-95250000D01*
X80250000Y-95750000D01*
X79000000Y-95750000D01*
X79000000Y-96114694D01*
X79000001Y-96114710D01*
X79029942Y-96342137D01*
X79089318Y-96563730D01*
X79177102Y-96775659D01*
X79177106Y-96775668D01*
X79291809Y-96974338D01*
X79431455Y-97156329D01*
X79431461Y-97156336D01*
X79593663Y-97318538D01*
X79593670Y-97318544D01*
X79775661Y-97458190D01*
X79974331Y-97572893D01*
X79974340Y-97572897D01*
X80186269Y-97660681D01*
X80407859Y-97720056D01*
X80407864Y-97720057D01*
X80499999Y-97732186D01*
X80500000Y-97732186D01*
X80500000Y-96433012D01*
X80557007Y-96465925D01*
X80684174Y-96500000D01*
X80815826Y-96500000D01*
X80942993Y-96465925D01*
X81000000Y-96433012D01*
X81000000Y-97732186D01*
X81092135Y-97720057D01*
X81092140Y-97720056D01*
X81313730Y-97660681D01*
X81525659Y-97572897D01*
X81525668Y-97572893D01*
X81724338Y-97458190D01*
X81906329Y-97318544D01*
X81906336Y-97318538D01*
X82068538Y-97156336D01*
X82068544Y-97156329D01*
X82208190Y-96974338D01*
X82322893Y-96775668D01*
X82322897Y-96775659D01*
X82410681Y-96563730D01*
X82470057Y-96342137D01*
X82499998Y-96114710D01*
X82500000Y-96114694D01*
X82500000Y-95750000D01*
X81250000Y-95750000D01*
X81250000Y-95250000D01*
X82500000Y-95250000D01*
X82500000Y-94885305D01*
X82499998Y-94885289D01*
X82470057Y-94657862D01*
X82410681Y-94436269D01*
X82322897Y-94224340D01*
X82322893Y-94224331D01*
X82208190Y-94025661D01*
X82068544Y-93843670D01*
X82068538Y-93843663D01*
X81906336Y-93681461D01*
X81906329Y-93681455D01*
X81724338Y-93541809D01*
X81525668Y-93427106D01*
X81525659Y-93427102D01*
X81313730Y-93339318D01*
X81092137Y-93279942D01*
X81000000Y-93267811D01*
X81000000Y-94566988D01*
X80942993Y-94534075D01*
X80815826Y-94500000D01*
X80684174Y-94500000D01*
X80557007Y-94534075D01*
X80500000Y-94566988D01*
X80500000Y-93267811D01*
X80499999Y-93267811D01*
X80407862Y-93279942D01*
X80186269Y-93339318D01*
X79974340Y-93427102D01*
X79974331Y-93427106D01*
X79775661Y-93541809D01*
X79593670Y-93681455D01*
X79593663Y-93681461D01*
X79431461Y-93843663D01*
X79431455Y-93843670D01*
X79291809Y-94025661D01*
X79177106Y-94224331D01*
X79177102Y-94224340D01*
X79089318Y-94436269D01*
X79029942Y-94657862D01*
X79000001Y-94885289D01*
X79000000Y-94885305D01*
X78750500Y-94885305D01*
X78750500Y-87313311D01*
X78770185Y-87246272D01*
X78822989Y-87200517D01*
X78892147Y-87190573D01*
X78955703Y-87219598D01*
X78962181Y-87225630D01*
X79057345Y-87320794D01*
X79057350Y-87320798D01*
X79235117Y-87449952D01*
X79261155Y-87468870D01*
X79404184Y-87541747D01*
X79485616Y-87583239D01*
X79485618Y-87583239D01*
X79485621Y-87583241D01*
X79725215Y-87661090D01*
X79974038Y-87700500D01*
X79974039Y-87700500D01*
X81525961Y-87700500D01*
X81525962Y-87700500D01*
X81774785Y-87661090D01*
X82014379Y-87583241D01*
X82238845Y-87468870D01*
X82442656Y-87320793D01*
X82620793Y-87142656D01*
X82768870Y-86938845D01*
X82883241Y-86714379D01*
X82961090Y-86474785D01*
X83000500Y-86225962D01*
X83000500Y-85974038D01*
X82961090Y-85725215D01*
X82883241Y-85485621D01*
X82883239Y-85485618D01*
X82883239Y-85485616D01*
X82841747Y-85404184D01*
X82768870Y-85261155D01*
X82749500Y-85234494D01*
X82620798Y-85057350D01*
X82620794Y-85057345D01*
X82442658Y-84879209D01*
X82442656Y-84879207D01*
X82355245Y-84815699D01*
X82312581Y-84760370D01*
X82306602Y-84690756D01*
X82317647Y-84659087D01*
X82319520Y-84655409D01*
X82319524Y-84655405D01*
X82408884Y-84480025D01*
X82469709Y-84292826D01*
X82500500Y-84098422D01*
X82500500Y-83901577D01*
X82469709Y-83707173D01*
X82408882Y-83519970D01*
X82319523Y-83344594D01*
X82203828Y-83185354D01*
X82106155Y-83087681D01*
X82102514Y-83081014D01*
X82096329Y-83076605D01*
X82086001Y-83050773D01*
X82072670Y-83026358D01*
X82073211Y-83018781D01*
X82070392Y-83011728D01*
X82075669Y-82984414D01*
X82077654Y-82956666D01*
X82082537Y-82948868D01*
X82083647Y-82943128D01*
X82101072Y-82919275D01*
X82104134Y-82914388D01*
X82105138Y-82913335D01*
X82203828Y-82814646D01*
X82218175Y-82794898D01*
X82223912Y-82788888D01*
X82247271Y-82775415D01*
X82268628Y-82758948D01*
X82279299Y-82756943D01*
X82284437Y-82753981D01*
X82292907Y-82754388D01*
X82313614Y-82750500D01*
X82634826Y-82750500D01*
X82701865Y-82770185D01*
X82722507Y-82786819D01*
X85909726Y-85974038D01*
X88973508Y-89037819D01*
X89006993Y-89099142D01*
X89002009Y-89168834D01*
X88960137Y-89224767D01*
X88894673Y-89249184D01*
X88885827Y-89249500D01*
X88201578Y-89249500D01*
X88007173Y-89280290D01*
X87819970Y-89341117D01*
X87644594Y-89430476D01*
X87553741Y-89496485D01*
X87485354Y-89546172D01*
X87485352Y-89546174D01*
X87485351Y-89546174D01*
X87346174Y-89685351D01*
X87346174Y-89685352D01*
X87346172Y-89685354D01*
X87296485Y-89753741D01*
X87230476Y-89844594D01*
X87141117Y-90019970D01*
X87080290Y-90207173D01*
X87049500Y-90401577D01*
X87049500Y-90598422D01*
X87080290Y-90792826D01*
X87141117Y-90980029D01*
X87209753Y-91114734D01*
X87230476Y-91155405D01*
X87346172Y-91314646D01*
X87485354Y-91453828D01*
X87644595Y-91569524D01*
X87727455Y-91611743D01*
X87819970Y-91658882D01*
X87819972Y-91658882D01*
X87819975Y-91658884D01*
X87920317Y-91691487D01*
X88007173Y-91719709D01*
X88194898Y-91749442D01*
X88258033Y-91779371D01*
X88294964Y-91838683D01*
X88299500Y-91871915D01*
X88299500Y-96243918D01*
X88299500Y-96243920D01*
X88299499Y-96243920D01*
X88328340Y-96388907D01*
X88328343Y-96388917D01*
X88384913Y-96525490D01*
X88384916Y-96525495D01*
X88400525Y-96548857D01*
X88467046Y-96648414D01*
X88467052Y-96648421D01*
X94053526Y-102234894D01*
X94087011Y-102296217D01*
X94088318Y-102341972D01*
X94079500Y-102397647D01*
X94079500Y-102602351D01*
X94111522Y-102804534D01*
X94174781Y-102999223D01*
X94267715Y-103181613D01*
X94388028Y-103347213D01*
X94532786Y-103491971D01*
X94645480Y-103573846D01*
X94698390Y-103612287D01*
X94814607Y-103671503D01*
X94880776Y-103705218D01*
X94880778Y-103705218D01*
X94880781Y-103705220D01*
X94971856Y-103734812D01*
X95075465Y-103768477D01*
X95159564Y-103781797D01*
X95277648Y-103800500D01*
X95277649Y-103800500D01*
X95482350Y-103800500D01*
X95482352Y-103800500D01*
X95538026Y-103791681D01*
X95607318Y-103800635D01*
X95645105Y-103826473D01*
X96151586Y-104332954D01*
X96181058Y-104352645D01*
X96225270Y-104382186D01*
X96274505Y-104415084D01*
X96274506Y-104415084D01*
X96274507Y-104415085D01*
X96274509Y-104415086D01*
X96411082Y-104471656D01*
X96411087Y-104471658D01*
X96411091Y-104471658D01*
X96411092Y-104471659D01*
X96556079Y-104500500D01*
X96556082Y-104500500D01*
X105823920Y-104500500D01*
X105921462Y-104481096D01*
X105968913Y-104471658D01*
X106105495Y-104415084D01*
X106154729Y-104382186D01*
X106154734Y-104382183D01*
X106193491Y-104356287D01*
X106228416Y-104332952D01*
X106417654Y-104143713D01*
X121649500Y-104143713D01*
X121649500Y-104356286D01*
X121682753Y-104566239D01*
X121748444Y-104768414D01*
X121844951Y-104957820D01*
X121969890Y-105129786D01*
X122120213Y-105280109D01*
X122292179Y-105405048D01*
X122292181Y-105405049D01*
X122292184Y-105405051D01*
X122481588Y-105501557D01*
X122683757Y-105567246D01*
X122893713Y-105600500D01*
X122893714Y-105600500D01*
X123106286Y-105600500D01*
X123106287Y-105600500D01*
X123316243Y-105567246D01*
X123518412Y-105501557D01*
X123707816Y-105405051D01*
X123729789Y-105389086D01*
X123879786Y-105280109D01*
X123879788Y-105280106D01*
X123879792Y-105280104D01*
X124030104Y-105129792D01*
X124030106Y-105129788D01*
X124030109Y-105129786D01*
X124155048Y-104957820D01*
X124155047Y-104957820D01*
X124155051Y-104957816D01*
X124251557Y-104768412D01*
X124317246Y-104566243D01*
X124350500Y-104356287D01*
X124350500Y-104143713D01*
X124317246Y-103933757D01*
X124251557Y-103731588D01*
X124155051Y-103542184D01*
X124155049Y-103542181D01*
X124155048Y-103542179D01*
X124030109Y-103370213D01*
X123879786Y-103219890D01*
X123707820Y-103094951D01*
X123518414Y-102998444D01*
X123518413Y-102998443D01*
X123518412Y-102998443D01*
X123316243Y-102932754D01*
X123316241Y-102932753D01*
X123316240Y-102932753D01*
X123153791Y-102907024D01*
X123106287Y-102899500D01*
X122893713Y-102899500D01*
X122846209Y-102907024D01*
X122683760Y-102932753D01*
X122481585Y-102998444D01*
X122292179Y-103094951D01*
X122120213Y-103219890D01*
X121969890Y-103370213D01*
X121844951Y-103542179D01*
X121748444Y-103731585D01*
X121682753Y-103933760D01*
X121649500Y-104143713D01*
X106417654Y-104143713D01*
X106724549Y-103836817D01*
X106785872Y-103803333D01*
X106812230Y-103800499D01*
X107600002Y-103800499D01*
X107600008Y-103800499D01*
X107702797Y-103789999D01*
X107869334Y-103734814D01*
X108018656Y-103642712D01*
X108087524Y-103573843D01*
X108148843Y-103540361D01*
X108218535Y-103545345D01*
X108248082Y-103561206D01*
X108318390Y-103612287D01*
X108404561Y-103656193D01*
X108500776Y-103705218D01*
X108500778Y-103705218D01*
X108500781Y-103705220D01*
X108591856Y-103734812D01*
X108695465Y-103768477D01*
X108779564Y-103781797D01*
X108897648Y-103800500D01*
X108897649Y-103800500D01*
X109102351Y-103800500D01*
X109102352Y-103800500D01*
X109304534Y-103768477D01*
X109499219Y-103705220D01*
X109681610Y-103612287D01*
X109778106Y-103542179D01*
X109847213Y-103491971D01*
X109847215Y-103491968D01*
X109847219Y-103491966D01*
X109991966Y-103347219D01*
X109994650Y-103343524D01*
X110025100Y-103301615D01*
X110080429Y-103258949D01*
X110125418Y-103250500D01*
X114023920Y-103250500D01*
X114121462Y-103231096D01*
X114168913Y-103221658D01*
X114305495Y-103165084D01*
X114354729Y-103132186D01*
X114428416Y-103082952D01*
X115724548Y-101786818D01*
X115785871Y-101753334D01*
X115812229Y-101750500D01*
X116798422Y-101750500D01*
X116992826Y-101719709D01*
X117012917Y-101713181D01*
X117180025Y-101658884D01*
X117355405Y-101569524D01*
X117514646Y-101453828D01*
X117653828Y-101314646D01*
X117769524Y-101155405D01*
X117858884Y-100980025D01*
X117919709Y-100792826D01*
X117922394Y-100775876D01*
X117950500Y-100598422D01*
X117950500Y-100401577D01*
X117919709Y-100207173D01*
X117879347Y-100082954D01*
X117858884Y-100019975D01*
X117858882Y-100019972D01*
X117858882Y-100019970D01*
X117790247Y-99885266D01*
X117769524Y-99844595D01*
X117653828Y-99685354D01*
X117514646Y-99546172D01*
X117355405Y-99430476D01*
X117346781Y-99426082D01*
X117180029Y-99341117D01*
X116992826Y-99280290D01*
X116798422Y-99249500D01*
X116798417Y-99249500D01*
X115101583Y-99249500D01*
X115101578Y-99249500D01*
X114907173Y-99280290D01*
X114719970Y-99341117D01*
X114544594Y-99430476D01*
X114453741Y-99496485D01*
X114385354Y-99546172D01*
X114385352Y-99546174D01*
X114385351Y-99546174D01*
X114246174Y-99685351D01*
X114246174Y-99685352D01*
X114246172Y-99685354D01*
X114196485Y-99753741D01*
X114130476Y-99844594D01*
X114041117Y-100019970D01*
X113980290Y-100207173D01*
X113949500Y-100401577D01*
X113949500Y-100598422D01*
X113980290Y-100792826D01*
X114041118Y-100980032D01*
X114124257Y-101143202D01*
X114137153Y-101211871D01*
X114110876Y-101276611D01*
X114101453Y-101287177D01*
X113675451Y-101713181D01*
X113614128Y-101746666D01*
X113587770Y-101749500D01*
X110125418Y-101749500D01*
X110058379Y-101729815D01*
X110025100Y-101698385D01*
X109991971Y-101652787D01*
X109991967Y-101652782D01*
X109847213Y-101508028D01*
X109681613Y-101387715D01*
X109681612Y-101387714D01*
X109681610Y-101387713D01*
X109621896Y-101357287D01*
X109499223Y-101294781D01*
X109304534Y-101231522D01*
X109129995Y-101203878D01*
X109102352Y-101199500D01*
X108897648Y-101199500D01*
X108873329Y-101203351D01*
X108695465Y-101231522D01*
X108500776Y-101294781D01*
X108318391Y-101387712D01*
X108318383Y-101387717D01*
X108248085Y-101438790D01*
X108182279Y-101462269D01*
X108114225Y-101446442D01*
X108087521Y-101426153D01*
X108080939Y-101419571D01*
X108018656Y-101357288D01*
X107943995Y-101311237D01*
X107869336Y-101265187D01*
X107869331Y-101265185D01*
X107867862Y-101264698D01*
X107702797Y-101210001D01*
X107702795Y-101210000D01*
X107600010Y-101199500D01*
X106399998Y-101199500D01*
X106399981Y-101199501D01*
X106297203Y-101210000D01*
X106297200Y-101210001D01*
X106130668Y-101265185D01*
X106130663Y-101265187D01*
X105981342Y-101357289D01*
X105857289Y-101481342D01*
X105765187Y-101630663D01*
X105765186Y-101630666D01*
X105710001Y-101797203D01*
X105710001Y-101797204D01*
X105710000Y-101797204D01*
X105699500Y-101899983D01*
X105699500Y-102687769D01*
X105679815Y-102754808D01*
X105663181Y-102775450D01*
X105475451Y-102963181D01*
X105414128Y-102996666D01*
X105387770Y-102999500D01*
X104375801Y-102999500D01*
X104308762Y-102979815D01*
X104263007Y-102927011D01*
X104253063Y-102857853D01*
X104257870Y-102837183D01*
X104268475Y-102804542D01*
X104268475Y-102804538D01*
X104268477Y-102804534D01*
X104300500Y-102602352D01*
X104300500Y-102397648D01*
X104268477Y-102195466D01*
X104205220Y-102000781D01*
X104205218Y-102000778D01*
X104205218Y-102000776D01*
X104153865Y-101899991D01*
X104112287Y-101818390D01*
X104089350Y-101786819D01*
X103991971Y-101652786D01*
X103847217Y-101508032D01*
X103847212Y-101508028D01*
X103801615Y-101474900D01*
X103758949Y-101419571D01*
X103750500Y-101374582D01*
X103750500Y-97375416D01*
X103770185Y-97308377D01*
X103801613Y-97275099D01*
X103847219Y-97241966D01*
X103991966Y-97097219D01*
X103991968Y-97097215D01*
X103991971Y-97097213D01*
X104062236Y-97000500D01*
X104112287Y-96931610D01*
X104205220Y-96749219D01*
X104268477Y-96554534D01*
X104300500Y-96352352D01*
X104300500Y-96147648D01*
X104268477Y-95945466D01*
X104268475Y-95945462D01*
X104268475Y-95945457D01*
X104257870Y-95912817D01*
X104255875Y-95842976D01*
X104291956Y-95783143D01*
X104354657Y-95752316D01*
X104375801Y-95750500D01*
X105387770Y-95750500D01*
X105454809Y-95770185D01*
X105475451Y-95786819D01*
X105663181Y-95974549D01*
X105696666Y-96035872D01*
X105699500Y-96062230D01*
X105699500Y-96850001D01*
X105699501Y-96850019D01*
X105710000Y-96952796D01*
X105710001Y-96952799D01*
X105765185Y-97119331D01*
X105765187Y-97119336D01*
X105788009Y-97156336D01*
X105857288Y-97268656D01*
X105981344Y-97392712D01*
X106130666Y-97484814D01*
X106297203Y-97539999D01*
X106399991Y-97550500D01*
X107600008Y-97550499D01*
X107702797Y-97539999D01*
X107869334Y-97484814D01*
X108018656Y-97392712D01*
X108087524Y-97323843D01*
X108148843Y-97290361D01*
X108218535Y-97295345D01*
X108248082Y-97311206D01*
X108318390Y-97362287D01*
X108404561Y-97406193D01*
X108500776Y-97455218D01*
X108500778Y-97455218D01*
X108500781Y-97455220D01*
X108591856Y-97484812D01*
X108695465Y-97518477D01*
X108796557Y-97534488D01*
X108897648Y-97550500D01*
X108897649Y-97550500D01*
X109102351Y-97550500D01*
X109102352Y-97550500D01*
X109304534Y-97518477D01*
X109499219Y-97455220D01*
X109681610Y-97362287D01*
X109774590Y-97294732D01*
X109847213Y-97241971D01*
X109847215Y-97241968D01*
X109847219Y-97241966D01*
X109991966Y-97097219D01*
X109994650Y-97093524D01*
X110025100Y-97051615D01*
X110080429Y-97008949D01*
X110125418Y-97000500D01*
X115573920Y-97000500D01*
X115671462Y-96981096D01*
X115718913Y-96971658D01*
X115855495Y-96915084D01*
X115904729Y-96882186D01*
X115978416Y-96832952D01*
X117926062Y-94885305D01*
X122500000Y-94885305D01*
X122500000Y-95250000D01*
X123750000Y-95250000D01*
X123750000Y-95750000D01*
X122500000Y-95750000D01*
X122500000Y-96114694D01*
X122500001Y-96114710D01*
X122529942Y-96342137D01*
X122589318Y-96563730D01*
X122677102Y-96775659D01*
X122677106Y-96775668D01*
X122791809Y-96974338D01*
X122931455Y-97156329D01*
X122931461Y-97156336D01*
X123093663Y-97318538D01*
X123093670Y-97318544D01*
X123275661Y-97458190D01*
X123474331Y-97572893D01*
X123474340Y-97572897D01*
X123686269Y-97660681D01*
X123907859Y-97720056D01*
X123907864Y-97720057D01*
X123999999Y-97732186D01*
X124000000Y-97732186D01*
X124000000Y-96433012D01*
X124057007Y-96465925D01*
X124184174Y-96500000D01*
X124315826Y-96500000D01*
X124442993Y-96465925D01*
X124500000Y-96433012D01*
X124500000Y-97732186D01*
X124592135Y-97720057D01*
X124592140Y-97720056D01*
X124813730Y-97660681D01*
X125025659Y-97572897D01*
X125025668Y-97572893D01*
X125224338Y-97458190D01*
X125406329Y-97318544D01*
X125406336Y-97318538D01*
X125568538Y-97156336D01*
X125568544Y-97156329D01*
X125708190Y-96974338D01*
X125822893Y-96775668D01*
X125822897Y-96775659D01*
X125910681Y-96563730D01*
X125970057Y-96342137D01*
X125999998Y-96114710D01*
X126000000Y-96114694D01*
X126000000Y-95750000D01*
X124750000Y-95750000D01*
X124750000Y-95250000D01*
X126000000Y-95250000D01*
X126000000Y-94885305D01*
X125999998Y-94885289D01*
X125970057Y-94657862D01*
X125910681Y-94436269D01*
X125822897Y-94224340D01*
X125822893Y-94224331D01*
X125708190Y-94025661D01*
X125568544Y-93843670D01*
X125568538Y-93843663D01*
X125406336Y-93681461D01*
X125406329Y-93681455D01*
X125224338Y-93541809D01*
X125025668Y-93427106D01*
X125025659Y-93427102D01*
X124813730Y-93339318D01*
X124592137Y-93279942D01*
X124500000Y-93267811D01*
X124500000Y-94566988D01*
X124442993Y-94534075D01*
X124315826Y-94500000D01*
X124184174Y-94500000D01*
X124057007Y-94534075D01*
X124000000Y-94566988D01*
X124000000Y-93267811D01*
X123999999Y-93267811D01*
X123907862Y-93279942D01*
X123686269Y-93339318D01*
X123474340Y-93427102D01*
X123474331Y-93427106D01*
X123275661Y-93541809D01*
X123093670Y-93681455D01*
X123093663Y-93681461D01*
X122931461Y-93843663D01*
X122931455Y-93843670D01*
X122791809Y-94025661D01*
X122677106Y-94224331D01*
X122677102Y-94224340D01*
X122589318Y-94436269D01*
X122529942Y-94657862D01*
X122500001Y-94885289D01*
X122500000Y-94885305D01*
X117926062Y-94885305D01*
X120026283Y-92785082D01*
X120087604Y-92751599D01*
X120130153Y-92749827D01*
X120131735Y-92750035D01*
X120135266Y-92750500D01*
X120135272Y-92750500D01*
X121364727Y-92750500D01*
X121364734Y-92750500D01*
X121592238Y-92720548D01*
X121813887Y-92661158D01*
X122025888Y-92573344D01*
X122224612Y-92458611D01*
X122406661Y-92318919D01*
X122406665Y-92318914D01*
X122406670Y-92318911D01*
X122568911Y-92156670D01*
X122568914Y-92156665D01*
X122568919Y-92156661D01*
X122708611Y-91974612D01*
X122823344Y-91775888D01*
X122911158Y-91563887D01*
X122970548Y-91342238D01*
X123000500Y-91114734D01*
X123000500Y-90885266D01*
X122970548Y-90657762D01*
X122911158Y-90436113D01*
X122823344Y-90224112D01*
X122708611Y-90025388D01*
X122708608Y-90025385D01*
X122708607Y-90025382D01*
X122568918Y-89843338D01*
X122568911Y-89843330D01*
X122406670Y-89681089D01*
X122406661Y-89681081D01*
X122224617Y-89541392D01*
X122025890Y-89426657D01*
X122025876Y-89426650D01*
X121813887Y-89338842D01*
X121592238Y-89279452D01*
X121554215Y-89274446D01*
X121364741Y-89249500D01*
X121364734Y-89249500D01*
X120135266Y-89249500D01*
X120135258Y-89249500D01*
X119918715Y-89278009D01*
X119907762Y-89279452D01*
X119904635Y-89280290D01*
X119686112Y-89338842D01*
X119474123Y-89426650D01*
X119474109Y-89426657D01*
X119275382Y-89541392D01*
X119093338Y-89681081D01*
X118931081Y-89843338D01*
X118791392Y-90025382D01*
X118676657Y-90224109D01*
X118676650Y-90224123D01*
X118588842Y-90436112D01*
X118529453Y-90657759D01*
X118529451Y-90657770D01*
X118499500Y-90885258D01*
X118499500Y-91114741D01*
X118504855Y-91155411D01*
X118529452Y-91342238D01*
X118559352Y-91453828D01*
X118588842Y-91563887D01*
X118676650Y-91775876D01*
X118676655Y-91775886D01*
X118715496Y-91843162D01*
X118731967Y-91911063D01*
X118709115Y-91977089D01*
X118695789Y-91992842D01*
X115225451Y-95463181D01*
X115164128Y-95496666D01*
X115137770Y-95499500D01*
X110125418Y-95499500D01*
X110058379Y-95479815D01*
X110025100Y-95448385D01*
X109991971Y-95402787D01*
X109991967Y-95402782D01*
X109847213Y-95258028D01*
X109681613Y-95137715D01*
X109681612Y-95137714D01*
X109681610Y-95137713D01*
X109621896Y-95107287D01*
X109499223Y-95044781D01*
X109304534Y-94981522D01*
X109129995Y-94953878D01*
X109102352Y-94949500D01*
X108897648Y-94949500D01*
X108873329Y-94953351D01*
X108695465Y-94981522D01*
X108500776Y-95044781D01*
X108318391Y-95137712D01*
X108318383Y-95137717D01*
X108248085Y-95188790D01*
X108182279Y-95212269D01*
X108114225Y-95196442D01*
X108087521Y-95176153D01*
X108018656Y-95107288D01*
X107917546Y-95044923D01*
X107869336Y-95015187D01*
X107869331Y-95015185D01*
X107867862Y-95014698D01*
X107702797Y-94960001D01*
X107702795Y-94960000D01*
X107600016Y-94949500D01*
X107600009Y-94949500D01*
X106812230Y-94949500D01*
X106745191Y-94929815D01*
X106724549Y-94913181D01*
X106228421Y-94417052D01*
X106228414Y-94417046D01*
X106154729Y-94367812D01*
X106154729Y-94367813D01*
X106105491Y-94334913D01*
X105968917Y-94278343D01*
X105968907Y-94278340D01*
X105823920Y-94249500D01*
X105823918Y-94249500D01*
X96556082Y-94249500D01*
X96556080Y-94249500D01*
X96411092Y-94278340D01*
X96411086Y-94278342D01*
X96274508Y-94334914D01*
X96274496Y-94334921D01*
X96225270Y-94367811D01*
X96225271Y-94367812D01*
X96151581Y-94417049D01*
X95645104Y-94923526D01*
X95583781Y-94957011D01*
X95538025Y-94958318D01*
X95482352Y-94949500D01*
X95277648Y-94949500D01*
X95230226Y-94957011D01*
X95075464Y-94981523D01*
X95075457Y-94981524D01*
X95042817Y-94992130D01*
X94972976Y-94994125D01*
X94913143Y-94958044D01*
X94882316Y-94895343D01*
X94880500Y-94874199D01*
X94880500Y-93059023D01*
X94851659Y-92914036D01*
X94851658Y-92914035D01*
X94851658Y-92914031D01*
X94798247Y-92785084D01*
X94795087Y-92777455D01*
X94795080Y-92777442D01*
X94712952Y-92654529D01*
X94712951Y-92654528D01*
X94608416Y-92549993D01*
X91901753Y-89843330D01*
X83475477Y-81417052D01*
X83475470Y-81417046D01*
X83401785Y-81367812D01*
X83401785Y-81367813D01*
X83352547Y-81334913D01*
X83215973Y-81278343D01*
X83215963Y-81278340D01*
X83070976Y-81249500D01*
X83070974Y-81249500D01*
X82499001Y-81249500D01*
X82431962Y-81229815D01*
X82386207Y-81177011D01*
X82376263Y-81107853D01*
X82399734Y-81051189D01*
X82443796Y-80992331D01*
X82494091Y-80857483D01*
X82500500Y-80797873D01*
X82500499Y-79202128D01*
X82494091Y-79142517D01*
X82494089Y-79142514D01*
X82493330Y-79135445D01*
X82505736Y-79066685D01*
X82528938Y-79034510D01*
X82620793Y-78942656D01*
X82768870Y-78738845D01*
X82883241Y-78514379D01*
X82961090Y-78274785D01*
X83000500Y-78025962D01*
X83000500Y-77774038D01*
X82961090Y-77525215D01*
X82883241Y-77285621D01*
X82883239Y-77285618D01*
X82883239Y-77285616D01*
X82841747Y-77204184D01*
X82768870Y-77061155D01*
X82737817Y-77018414D01*
X82620798Y-76857350D01*
X82620794Y-76857345D01*
X82442654Y-76679205D01*
X82442649Y-76679201D01*
X82238848Y-76531132D01*
X82238847Y-76531131D01*
X82238845Y-76531130D01*
X82171841Y-76496989D01*
X82014383Y-76416760D01*
X81943452Y-76393713D01*
X121649500Y-76393713D01*
X121649500Y-76606286D01*
X121682753Y-76816239D01*
X121748444Y-77018414D01*
X121844951Y-77207820D01*
X121969890Y-77379786D01*
X122120213Y-77530109D01*
X122292179Y-77655048D01*
X122292181Y-77655049D01*
X122292184Y-77655051D01*
X122481588Y-77751557D01*
X122683757Y-77817246D01*
X122893713Y-77850500D01*
X122893714Y-77850500D01*
X123106286Y-77850500D01*
X123106287Y-77850500D01*
X123316243Y-77817246D01*
X123518412Y-77751557D01*
X123707816Y-77655051D01*
X123729789Y-77639086D01*
X123879786Y-77530109D01*
X123879788Y-77530106D01*
X123879792Y-77530104D01*
X124030104Y-77379792D01*
X124030106Y-77379788D01*
X124030109Y-77379786D01*
X124155048Y-77207820D01*
X124155047Y-77207820D01*
X124155051Y-77207816D01*
X124251557Y-77018412D01*
X124317246Y-76816243D01*
X124350500Y-76606287D01*
X124350500Y-76393713D01*
X124317246Y-76183757D01*
X124251557Y-75981588D01*
X124155051Y-75792184D01*
X124155049Y-75792181D01*
X124155048Y-75792179D01*
X124030109Y-75620213D01*
X123879786Y-75469890D01*
X123707820Y-75344951D01*
X123518414Y-75248444D01*
X123518413Y-75248443D01*
X123518412Y-75248443D01*
X123316243Y-75182754D01*
X123316241Y-75182753D01*
X123316240Y-75182753D01*
X123121004Y-75151831D01*
X123106287Y-75149500D01*
X122893713Y-75149500D01*
X122878996Y-75151831D01*
X122683760Y-75182753D01*
X122481585Y-75248444D01*
X122292179Y-75344951D01*
X122120213Y-75469890D01*
X121969890Y-75620213D01*
X121844951Y-75792179D01*
X121748444Y-75981585D01*
X121682753Y-76183760D01*
X121649500Y-76393713D01*
X81943452Y-76393713D01*
X81774785Y-76338910D01*
X81525962Y-76299500D01*
X79974038Y-76299500D01*
X79849626Y-76319205D01*
X79725214Y-76338910D01*
X79485616Y-76416760D01*
X79261151Y-76531132D01*
X79057350Y-76679201D01*
X79057345Y-76679205D01*
X78962181Y-76774370D01*
X78900858Y-76807855D01*
X78831166Y-76802871D01*
X78775233Y-76760999D01*
X78750816Y-76695535D01*
X78750500Y-76686689D01*
X78750500Y-75753750D01*
X78750726Y-75746263D01*
X78768271Y-75456205D01*
X78770076Y-75441340D01*
X78787741Y-75344949D01*
X78821780Y-75159198D01*
X78825364Y-75144664D01*
X78910699Y-74870812D01*
X78915997Y-74856842D01*
X79033727Y-74595258D01*
X79040680Y-74582012D01*
X79080959Y-74515381D01*
X79189075Y-74336534D01*
X79197567Y-74324230D01*
X79374481Y-74098417D01*
X79384396Y-74087226D01*
X79587226Y-73884396D01*
X79598417Y-73874481D01*
X79824230Y-73697567D01*
X79836534Y-73689075D01*
X80082012Y-73540680D01*
X80095258Y-73533727D01*
X80356842Y-73415997D01*
X80370812Y-73410699D01*
X80644668Y-73325362D01*
X80659198Y-73321780D01*
X80941344Y-73270075D01*
X80956201Y-73268271D01*
X81246264Y-73250726D01*
X81253751Y-73250500D01*
X81315892Y-73250500D01*
X123684108Y-73250500D01*
X123746249Y-73250500D01*
X123753736Y-73250726D01*
G37*
%TD.AperFunction*%
%TD*%
M02*
